<?xml version="1.0" standalone="no"?>
<!DOCTYPE svg PUBLIC "-//W3C//DTD SVG 20010904//EN"
 "http://www.w3.org/TR/2001/REC-SVG-20010904/DTD/svg10.dtd">
<svg version="1.0" xmlns="http://www.w3.org/2000/svg"
 width="500.000000pt" height="500.000000pt" viewBox="0 0 500.000000 500.000000"
 preserveAspectRatio="xMidYMid meet">
<metadata>
Created by potrace 1.16, written by Peter Selinger 2001-2019
</metadata>
<g transform="translate(0.000000,500.000000) scale(0.100000,-0.100000)"
fill="#000000" stroke="none">
<path d="M2495 4721 c-16 -5 -55 -9 -86 -10 -31 0 -76 -8 -100 -17 -24 -8 -80
-19 -124 -23 -70 -7 -189 -36 -250 -61 -11 -5 -36 -11 -55 -14 -22 -4 -52 -22
-80 -47 -25 -23 -63 -48 -85 -57 -87 -34 -242 -156 -271 -216 -9 -17 -24 -40
-34 -51 -21 -22 -49 -94 -56 -140 -2 -16 -15 -51 -29 -78 -14 -26 -23 -52 -21
-56 3 -5 0 -37 -6 -71 -8 -47 -8 -68 1 -82 6 -10 11 -28 11 -42 0 -13 7 -29
15 -36 10 -8 15 -30 15 -63 0 -48 12 -101 32 -140 5 -10 8 -51 7 -92 -2 -71
-3 -75 -24 -75 -32 0 -42 -40 -45 -173 -1 -59 8 -77 27 -52 8 11 13 45 13 84
0 53 4 69 22 88 l21 23 33 -34 c39 -40 51 -77 37 -120 -5 -17 -8 -53 -6 -81 2
-27 5 -65 6 -83 2 -38 35 -71 49 -49 4 6 8 86 8 177 0 241 29 387 82 424 21
15 23 15 28 0 9 -23 21 -19 37 13 12 26 66 57 100 58 6 0 19 7 30 16 30 27
135 95 178 116 22 11 67 25 100 32 33 8 71 19 85 27 24 12 23 13 -15 9 -22 -3
-32 -2 -22 1 9 3 17 9 17 14 0 5 21 16 46 26 36 14 47 15 54 5 6 -10 9 -10 15
-1 4 6 13 9 21 6 8 -3 13 0 11 7 -1 7 8 12 21 12 12 0 49 24 83 55 34 29 73
55 87 56 14 2 28 7 31 13 7 11 91 3 91 -9 0 -13 216 -2 283 15 79 20 115 14
175 -27 29 -20 42 -36 42 -52 0 -15 9 -27 25 -34 24 -11 61 -79 99 -183 9 -25
24 -54 34 -65 10 -10 27 -35 38 -54 10 -19 24 -40 31 -47 44 -48 102 -442 75
-510 -6 -16 -13 -53 -16 -83 -2 -30 -8 -70 -14 -87 -6 -20 -7 -33 -1 -33 5 0
9 8 9 18 0 9 7 26 15 36 8 11 15 26 15 34 0 8 8 20 17 27 20 15 25 49 27 190
1 61 5 117 8 125 4 8 9 27 12 42 4 15 15 30 27 33 16 5 18 9 9 15 -22 13 -6
122 25 175 25 43 26 51 24 169 -1 67 1 127 4 133 4 6 3 13 -1 17 -4 4 -8 28
-9 54 -1 26 -4 58 -7 72 -3 14 -9 39 -12 55 -8 39 -42 105 -53 105 -5 0 -12
12 -16 28 -3 15 -13 35 -22 44 -8 9 -12 21 -9 26 9 15 -121 128 -193 168 -18
11 -44 25 -57 32 -13 7 -24 17 -24 21 0 4 -27 27 -60 50 -33 23 -60 47 -60 52
0 5 -10 13 -23 18 -13 5 -53 30 -90 56 -56 39 -80 49 -145 60 -102 18 -250 26
-287 16z"/>
<path d="M3025 3590 c-11 -4 -31 -11 -43 -15 -18 -6 -21 -10 -10 -17 9 -7 7
-8 -8 -4 -32 9 -145 15 -181 9 -20 -4 -50 -23 -81 -52 -26 -26 -53 -46 -60
-43 -7 2 -12 -1 -12 -6 0 -17 54 -20 100 -6 25 8 59 18 75 23 36 11 162 27
189 23 10 -1 37 3 60 9 53 15 76 18 70 7 -3 -4 10 -8 28 -8 22 0 43 -9 60 -25
15 -14 30 -25 33 -25 8 0 6 29 -4 48 -5 9 -12 24 -14 33 -3 9 -35 24 -80 37
-80 23 -90 24 -122 12z"/>
<path d="M1955 3541 c-2 -2 -48 -5 -102 -6 -54 -2 -109 -8 -123 -13 -25 -10
-70 -52 -55 -52 4 0 0 -11 -9 -25 -13 -19 -13 -25 -3 -25 7 0 18 5 25 12 6 6
28 11 49 10 21 -1 33 2 27 6 -23 14 286 22 321 8 17 -7 15 -9 -20 -22 -22 -7
-64 -14 -94 -14 -63 0 -158 -27 -183 -52 -10 -10 -22 -18 -28 -18 -5 0 -10 -9
-10 -19 0 -10 -8 -22 -17 -26 -16 -6 -15 -8 7 -25 14 -11 29 -20 33 -20 5 0
20 -9 34 -20 20 -16 34 -19 62 -14 63 11 67 20 17 35 -44 13 -62 29 -31 29 8
0 31 11 51 25 46 31 50 31 57 -3 6 -28 40 -52 75 -52 27 0 62 29 62 51 0 24
22 24 80 -1 l45 -20 -24 20 c-13 11 -55 30 -95 42 -39 11 -74 26 -78 32 -6 8
-10 8 -15 0 -9 -12 -123 -37 -131 -29 -7 7 3 16 21 19 8 1 22 8 31 15 11 9 42
13 92 13 63 -1 87 -6 137 -31 45 -22 63 -27 69 -18 5 8 -6 20 -30 34 -72 43
-72 44 16 39 76 -3 107 4 82 19 -5 3 -10 15 -10 26 0 11 -4 18 -9 15 -14 -9
-42 5 -34 17 3 6 1 7 -5 3 -6 -4 -26 1 -44 11 -23 13 -64 19 -136 23 -57 3
-105 3 -107 1z"/>
<path d="M2871 3452 c-53 -2 -73 -9 -118 -38 -31 -19 -53 -38 -50 -41 4 -3 34
9 69 28 52 27 77 33 144 37 74 4 86 2 124 -21 53 -31 38 -41 -37 -24 -80 18
-129 13 -204 -21 -60 -27 -105 -62 -81 -62 6 0 14 5 17 10 3 6 24 19 46 29 37
18 41 18 45 3 11 -34 21 -46 48 -55 40 -13 86 8 93 45 5 26 9 29 32 23 44 -11
71 -33 68 -58 -2 -18 4 -23 31 -25 24 -3 32 1 32 13 0 9 4 14 9 11 5 -3 14 1
21 8 9 12 6 18 -15 32 -24 16 -25 19 -11 29 14 11 14 14 -2 28 -45 41 -124 56
-261 49z"/>
<path d="M2550 2831 c0 -6 -11 -13 -24 -17 -18 -4 -22 -10 -18 -27 3 -12 11
-27 17 -33 12 -12 99 -33 150 -36 17 -1 36 -6 43 -11 8 -6 12 -6 12 1 0 7 11
7 34 1 19 -5 38 -8 43 -7 4 2 19 -5 33 -15 21 -15 23 -19 10 -28 -14 -9 -28
-8 -99 8 -21 5 -22 4 -12 -15 6 -11 25 -28 43 -36 27 -14 34 -14 53 -2 13 8
33 12 46 9 56 -12 89 -25 84 -33 -3 -5 0 -12 6 -16 8 -5 9 -3 4 6 -6 10 -3 12
11 8 31 -8 45 16 38 64 -13 84 -41 102 -196 129 -37 7 -65 15 -63 19 3 4 -15
5 -40 2 -25 -2 -50 0 -57 6 -7 5 -29 13 -48 17 -19 3 -43 9 -52 11 -10 3 -18
1 -18 -5z"/>
<path d="M2372 2818 c-7 -7 -12 -9 -12 -5 0 3 -12 2 -27 -4 -16 -6 -39 -12
-53 -15 -78 -14 -89 -17 -84 -25 5 -9 4 -10 -61 -15 -114 -10 -164 -37 -185
-99 -14 -41 -6 -58 22 -49 15 4 19 2 16 -7 -3 -8 -1 -22 4 -32 8 -16 12 -14
41 13 32 31 33 31 113 24 85 -6 96 -2 99 39 1 11 -3 16 -11 13 -35 -13 -82
-17 -89 -6 -11 18 13 37 42 34 15 -1 31 2 35 9 4 6 33 12 65 13 69 2 130 24
155 54 16 20 16 22 0 39 -23 25 -55 34 -70 19z"/>
<path d="M2313 2447 c-8 -14 17 -35 50 -42 18 -4 42 -13 54 -21 16 -10 44 -12
117 -7 53 3 96 10 96 15 0 4 6 8 13 8 7 0 19 6 26 13 6 6 16 13 22 13 5 1 13
2 17 3 5 0 9 8 9 16 0 14 -25 15 -200 13 -109 -2 -201 -7 -204 -11z"/>
<path d="M1666 2293 c-22 -76 -23 -102 -2 -197 44 -199 172 -425 264 -463 45
-19 60 -1 30 36 -11 14 -34 49 -51 76 -18 28 -44 64 -59 80 -16 17 -28 34 -28
38 0 5 -11 23 -24 40 -57 75 -77 143 -86 290 -4 77 -12 143 -17 148 -6 6 -16
-12 -27 -48z"/>
<path d="M2001 2329 c-13 -11 -30 -18 -37 -15 -8 3 -11 0 -7 -10 6 -17 5 -17
40 -4 26 9 27 9 9 -5 -26 -20 -43 -19 -74 6 -18 14 -28 17 -30 9 -3 -7 2 -16
9 -21 7 -4 10 -11 7 -14 -9 -10 -49 20 -40 30 4 4 1 6 -7 3 -8 -2 -19 -11 -25
-20 -12 -19 4 -42 49 -70 17 -10 26 -18 21 -18 -5 0 -3 -7 4 -15 7 -8 19 -15
27 -15 8 0 30 -17 50 -37 19 -21 42 -37 50 -35 8 2 20 -1 26 -6 32 -24 209
-74 244 -68 13 3 83 6 154 7 71 1 132 5 134 9 3 4 23 8 44 8 22 0 52 8 66 18
18 12 29 14 36 7 12 -12 55 6 106 43 17 13 35 24 38 24 4 0 24 14 45 30 21 17
42 30 46 30 5 0 22 13 37 29 15 17 37 33 48 36 15 5 18 12 14 28 -5 17 -4 19
4 7 14 -21 20 -9 10 19 -9 23 -10 23 -28 7 -18 -17 -20 -16 -26 3 -7 22 -25
29 -25 9 0 -6 -3 -9 -6 -5 -4 3 -20 -1 -36 -9 -16 -8 -33 -12 -38 -9 -6 3 -10
-1 -10 -10 0 -9 -5 -13 -10 -10 -6 4 -20 -5 -31 -19 -23 -30 -37 -32 -53 -10
-6 8 -18 16 -26 17 -8 2 -30 10 -49 20 -37 18 -51 12 -51 -24 0 -9 -7 -20 -16
-23 -25 -10 -54 -7 -54 5 0 8 -5 8 -15 -1 -8 -7 -22 -10 -30 -6 -9 3 -15 0
-15 -8 0 -15 -24 -28 -34 -19 -10 10 -76 12 -76 3 0 -6 -4 -10 -10 -10 -5 0
-10 8 -10 18 0 9 -4 13 -8 7 -4 -5 -15 -16 -24 -23 -14 -11 -16 -11 -11 7 5
19 2 19 -28 11 -43 -13 -45 -12 -31 2 20 20 13 32 -8 13 -12 -11 -20 -13 -20
-6 0 9 -4 8 -14 -1 -10 -9 -11 -15 -2 -20 6 -5 -2 -6 -19 -3 -16 2 -51 6 -78
9 -46 5 -56 10 -98 49 -10 9 -23 17 -29 17 -5 0 -10 5 -10 10 0 6 -9 10 -20
10 -13 0 -18 5 -14 15 8 21 -6 18 -35 -6z"/>
<path d="M3270 2255 c-8 -9 -21 -13 -36 -9 -23 6 -24 4 -24 -42 -1 -88 -12
-158 -36 -233 -14 -40 -23 -76 -20 -78 7 -7 -26 -73 -64 -128 -53 -76 -120
-145 -175 -181 -27 -18 -61 -42 -75 -54 l-25 -20 54 20 c30 12 73 32 96 45 47
28 177 171 206 227 10 20 23 39 28 42 5 4 26 34 46 69 20 34 47 77 60 95 46
63 57 191 20 224 -41 37 -43 38 -55 23z"/>
<path d="M3160 1505 c0 -6 57 -31 130 -57 65 -23 205 -34 215 -18 10 16 7 18
-91 46 -78 23 -254 43 -254 29z"/>
</g>
</svg>
