<svg id="Layer_5" enable-background="new 0 0 64 64" height="512" viewBox="0 0 64 64" width="512" xmlns="http://www.w3.org/2000/svg" xmlns:xlink="http://www.w3.org/1999/xlink"><linearGradient id="SVGID_1_" gradientUnits="userSpaceOnUse" x1="32" x2="32" y1="63" y2="1"><stop offset="0" stop-color="#9f2fff"/><stop offset="1" stop-color="#0bb1d3"/></linearGradient><path d="m50.01 42.858 1.979.283-2 14-1.979-.283zm2.283 4.849 2.293 2.293-2.293 2.293 1.414 1.414 3.707-3.707-3.707-3.707zm-6-1.414-3.707 3.707 3.707 3.707 1.414-1.414-2.293-2.293 2.293-2.293zm16.707 3.209v.996c0 1.331-.85 2.505-2.114 2.921-.303.099-.54.316-.648.596-.051.13-.104.261-.161.39-.119.274-.105.592.038.874.601 1.188.372 2.62-.57 3.561l-.705.704c-.941.942-2.373 1.17-3.561.57-.282-.144-.601-.157-.873-.038-.13.057-.261.11-.393.161-.278.108-.495.344-.594.646-.416 1.267-1.59 2.117-2.921 2.117h-.996c-1.331 0-2.505-.85-2.921-2.114-.099-.303-.316-.54-.596-.648-.13-.051-.261-.104-.39-.161-.274-.12-.592-.105-.874.038-1.189.6-2.62.372-3.561-.57l-.704-.705c-.942-.941-1.171-2.372-.57-3.561.143-.282.156-.6.038-.873-.057-.13-.11-.261-.161-.393-.108-.278-.344-.495-.646-.594-1.267-.416-2.117-1.59-2.117-2.921v-.996c0-.17.015-.338.042-.502h-33.042c-1.654 0-3-1.346-3-3v-42c0-1.654 1.346-3 3-3h52c1.654 0 3 1.346 3 3v36.615l.544.544c.942.941 1.171 2.373.57 3.561-.143.282-.156.6-.038.873.057.13.11.261.161.393.108.278.344.495.646.594 1.267.417 2.117 1.591 2.117 2.922zm-60-45.502v9h54v-9c0-.551-.449-1-1-1h-52c-.551 0-1 .449-1 1zm1 43h34.292c.248-.176.522-.32.822-.419.303-.099.54-.316.648-.596.051-.13.104-.261.161-.39.119-.274.105-.592-.038-.874-.601-1.188-.372-2.62.57-3.561l.704-.704c.941-.942 2.372-1.171 3.561-.57.282.143.6.156.873.038.129-.056.26-.11.391-.161.28-.109.497-.345.596-.646.417-1.267 1.591-2.117 2.922-2.117h.996c1.331 0 2.505.85 2.921 2.114.099.303.317.54.596.648.131.051.262.105.39.161.275.119.593.105.874-.038.546-.276 1.143-.369 1.721-.306v-24.579h-54v31c0 .551.449 1 1 1zm57 2.502c0-.465-.297-.875-.739-1.021-.873-.287-1.561-.932-1.887-1.771-.042-.109-.086-.215-.132-.321-.356-.819-.324-1.756.087-2.571.21-.415.13-.916-.199-1.245l-.704-.704c-.33-.329-.831-.41-1.245-.199-.815.411-1.754.443-2.572.087-.105-.045-.212-.089-.319-.131-.839-.326-1.484-1.014-1.771-1.886-.145-.443-.556-.74-1.021-.74h-.996c-.465 0-.875.297-1.021.739-.287.873-.933 1.561-1.772 1.887-.107.042-.214.085-.32.131-.818.356-1.756.325-2.571-.087-.416-.211-.916-.13-1.245.199l-.704.704c-.329.329-.409.83-.199 1.245.412.815.443 1.752.087 2.572-.045.104-.089.211-.131.318-.327.84-1.015 1.486-1.887 1.772-.442.146-.739.557-.739 1.022v.996c0 .465.297.875.739 1.021.873.287 1.561.932 1.887 1.771.042.109.086.215.132.321.356.819.324 1.756-.087 2.571-.21.415-.13.915.199 1.244l.705.705c.33.33.829.409 1.244.199.439-.222.914-.333 1.386-.333.405 0 .808.082 1.186.247.104.045.211.089.318.131.84.327 1.486 1.014 1.772 1.886.146.443.556.74 1.021.74h.996c.465 0 .875-.297 1.021-.739.287-.873.932-1.561 1.771-1.887.109-.042.215-.086.321-.132.818-.354 1.757-.324 2.571.087.414.21.914.13 1.244-.199l.705-.705c.329-.329.409-.829.199-1.244-.412-.815-.443-1.752-.087-2.572.045-.104.089-.211.131-.318.327-.84 1.014-1.486 1.886-1.772.443-.146.74-.556.74-1.021zm-50-38.502h-6v-6h6zm-2-4h-2v2h2zm10 4h-6v-6h6zm-2-4h-2v2h2zm10 4h-6v-6h6zm-2-4h-2v2h2zm11 32h-4v1.465c0 1.398-1.137 2.535-2.535 2.535-.502 0-.988-.147-1.406-.426l-5.362-3.574h-14.697c-1.654 0-3-1.346-3-3v-16c0-1.654 1.346-3 3-3h28c1.654 0 3 1.346 3 3v16c0 1.654-1.346 3-3 3zm1-19c0-.551-.449-1-1-1h-28c-.551 0-1 .449-1 1v16c0 .551.449 1 1 1h15.303l5.865 3.91c.333.221.832-.045.832-.445v-3.465h6c.551 0 1-.449 1-1zm-30 25h2v-2h-2zm4 0h2v-2h-2zm8 0h2v-2h-2zm-4 0h2v-2h-2zm-4-20c0 1.103-.897 2-2 2v2c1.103 0 2 .897 2 2 0 2.206 1.794 4 4 4v-2c-1.103 0-2-.897-2-2 0-1.2-.542-2.266-1.382-3 .84-.734 1.382-1.8 1.382-3 0-1.103.897-2 2-2v-2c-2.206 0-4 1.794-4 4zm22 0c0-2.206-1.794-4-4-4v2c1.103 0 2 .897 2 2 0 1.2.542 2.266 1.382 3-.84.734-1.382 1.8-1.382 3 0 1.103-.897 2-2 2v2c2.206 0 4-1.794 4-4 0-1.103.897-2 2-2v-2c-1.103 0-2-.897-2-2zm-16-2h10v-2h-10zm0 4h10v-2h-10zm2 2h-2v2h2zm2 2h6v-2h-6zm-4 4h10v-2h-10zm26-14h-2v2h2zm2 2h10v-2h-10zm10 2h-14v2h14zm-10 4h-4v2h4zm4 2v-2h-2v2zm2 0h4v-2h-4zm4 2h-14v2h14zm0-16h-14v2h14z" fill="url(#SVGID_1_)"/></svg>